<?xml version="1.0" encoding="UTF-8" standalone="no"?>
<!-- Created with Inkscape (http://www.inkscape.org/) -->

<svg
   width="45.30751mm"
   height="35.091293mm"
   viewBox="0 0 45.30751 35.091293"
   version="1.1"
   id="svg5"
   inkscape:version="1.2.2 (732a01da63, 2022-12-09)"
   sodipodi:docname="paint_icon.svg"
   xmlns:inkscape="http://www.inkscape.org/namespaces/inkscape"
   xmlns:sodipodi="http://sodipodi.sourceforge.net/DTD/sodipodi-0.dtd"
   xmlns="http://www.w3.org/2000/svg"
   xmlns:svg="http://www.w3.org/2000/svg">
  <sodipodi:namedview
     id="namedview7"
     pagecolor="#ffffff"
     bordercolor="#000000"
     borderopacity="0.25"
     inkscape:showpageshadow="2"
     inkscape:pageopacity="0.0"
     inkscape:pagecheckerboard="0"
     inkscape:deskcolor="#d1d1d1"
     inkscape:document-units="mm"
     showgrid="false"
     showguides="true"
     inkscape:zoom="5.8012346"
     inkscape:cx="94.376463"
     inkscape:cy="58.522026"
     inkscape:window-width="1920"
     inkscape:window-height="1001"
     inkscape:window-x="-9"
     inkscape:window-y="-9"
     inkscape:window-maximized="1"
     inkscape:current-layer="layer1" />
  <defs
     id="defs2" />
  <g
     inkscape:label="Layer 1"
     inkscape:groupmode="layer"
     id="layer1"
     transform="translate(-16.386783,-34.994892)">
    <path
       id="rect1107"
       style="opacity:1;fill:#ffffff;stroke:#000000;stroke-width:2.64583333;stroke-linejoin:round;paint-order:markers stroke fill;stop-color:#000000;stroke-dasharray:none"
       d="M 28.038159,47.944136 C 32.081991,44.06842 44.45916,46.071728 44.45916,46.071728 l -4.434869,14.023138 c 0,0 -11.115058,3.783414 -15.262341,-1.394346 -2.744115,-3.425947 0.428135,-8.026713 3.276209,-10.756384 z"
       sodipodi:nodetypes="sccss" />
    <ellipse
       style="opacity:1;fill:#ffffff;stroke:#000000;stroke-width:1.32291667;stroke-linejoin:round;stroke-dasharray:none;stroke-opacity:1;paint-order:markers stroke fill;stop-color:#000000"
       id="path1162"
       cx="40.943226"
       cy="47.944138"
       rx="1.6381048"
       ry="0.99596155" />
    <path
       id="path1219"
       style="opacity:1;fill:#0000ff;stroke:#ffffff;stroke-width:0.529169;stroke-linejoin:round;stroke-dasharray:none;paint-order:markers stroke fill;stop-color:#000000"
       d="m 25.355896,53.987715 c -0.06844,-0.364248 1.027789,-0.678046 1.023654,-0.853234 -0.005,-0.213048 -0.76422,-0.578239 -0.437035,-0.888654 0.158625,-0.150494 0.592459,-0.122127 0.954535,-0.285586 0.132454,-0.325155 0.807621,-0.852544 0.870989,-0.257491 0.09615,0.902925 1.033778,0.586034 1.100456,0.870856 0.06469,0.276328 -0.342087,0.182123 -0.421913,1.269077 -0.04394,0.598395 -0.616219,0.838599 -1.100145,0.793028 -0.869885,-0.08192 -1.922097,-0.283747 -1.990541,-0.647996 z"
       sodipodi:nodetypes="zsscssssz"
       inkscape:transform-center-x="-1.7979142"
       inkscape:transform-center-y="-2.1914221" />
    <path
       id="path1221"
       style="opacity:1;fill:#ff0000;stroke:#ffffff;stroke-width:0.529169;stroke-linejoin:round;stroke-dasharray:none;paint-order:markers stroke fill;stop-color:#000000"
       d="m 28.831874,50.450989 c -0.06844,-0.364249 1.02779,-0.678047 1.023654,-0.853235 -0.005,-0.213047 -0.76422,-0.578239 -0.437034,-0.888654 0.158625,-0.150493 0.592458,-0.122127 0.954534,-0.285586 0.132455,-0.325155 0.807622,-0.852544 0.87099,-0.257491 0.09615,0.902925 1.033778,0.586034 1.100455,0.870857 0.06469,0.276327 -0.342086,0.182122 -0.421912,1.269077 -0.04394,0.598394 -0.616219,0.838598 -1.100146,0.793027 -0.869885,-0.08192 -1.922097,-0.283747 -1.990541,-0.647995 z"
       sodipodi:nodetypes="zsscssssz"
       inkscape:transform-center-x="-1.7979136"
       inkscape:transform-center-y="-2.1914221" />
    <path
       id="path1223"
       style="opacity:1;fill:#00ff00;stroke:#ffffff;stroke-width:0.529169;stroke-linejoin:round;stroke-dasharray:none;paint-order:markers stroke fill;stop-color:#000000"
       d="m 27.992845,58.250431 c -0.06844,-0.364249 1.027789,-0.678047 1.023654,-0.853235 -0.005,-0.213047 -0.76422,-0.578239 -0.437034,-0.888654 0.158624,-0.150494 0.592458,-0.122127 0.954534,-0.285586 0.132454,-0.325155 0.807621,-0.852544 0.87099,-0.25749 0.09615,0.902924 1.033777,0.586033 1.100455,0.870856 0.06469,0.276327 -0.342087,0.182123 -0.421912,1.269077 -0.04394,0.598394 -0.61622,0.838598 -1.100146,0.793027 -0.869885,-0.08192 -1.922097,-0.283747 -1.990541,-0.647995 z"
       sodipodi:nodetypes="zsscssssz"
       inkscape:transform-center-x="-1.797914"
       inkscape:transform-center-y="-2.1914222" />
    <path
       id="path1225"
       style="opacity:1;fill:#ff00ff;stroke:#ffffff;stroke-width:0.529169;stroke-linejoin:round;stroke-dasharray:none;paint-order:markers stroke fill;stop-color:#000000"
       d="m 34.2534,56.796327 c -0.06844,-0.364249 1.027789,-0.678047 1.023654,-0.853235 -0.005,-0.213047 -0.76422,-0.578239 -0.437034,-0.888654 0.158624,-0.150493 0.592457,-0.122127 0.954534,-0.285586 0.132454,-0.325155 0.807621,-0.852544 0.87099,-0.25749 0.09615,0.902924 1.033777,0.586033 1.100454,0.870856 0.06469,0.276327 -0.342086,0.182123 -0.421912,1.269077 -0.04394,0.598394 -0.616218,0.838598 -1.100145,0.793027 -0.869885,-0.08192 -1.922097,-0.283747 -1.990541,-0.647995 z"
       sodipodi:nodetypes="zsscssssz"
       inkscape:transform-center-x="-1.7979134"
       inkscape:transform-center-y="-2.1914222" />
    <path
       id="path1227"
       style="opacity:1;fill:#1a1a1a;stroke:#ffffff;stroke-width:0.529169;stroke-linejoin:round;stroke-dasharray:none;paint-order:markers stroke fill;stop-color:#000000"
       d="m 34.405426,52.219352 c -0.06844,-0.364248 1.027789,-0.678047 1.023654,-0.853234 -0.005,-0.213048 -0.76422,-0.57824 -0.437034,-0.888655 0.158624,-0.150493 0.592458,-0.122126 0.954534,-0.285585 0.132454,-0.325156 0.807621,-0.852544 0.87099,-0.257491 0.09615,0.902925 1.033777,0.586033 1.100455,0.870856 0.06469,0.276327 -0.342087,0.182123 -0.421912,1.269077 -0.04394,0.598395 -0.61622,0.838599 -1.100146,0.793027 -0.869885,-0.08192 -1.922097,-0.283746 -1.990541,-0.647995 z"
       sodipodi:nodetypes="zsscssssz"
       inkscape:transform-center-x="-1.7979139"
       inkscape:transform-center-y="-2.1914221" />
    <path
       id="path1283"
       style="opacity:1;fill:none;stroke:#000000;stroke-width:0.82020833;stroke-linejoin:round;stroke-dasharray:none;stroke-opacity:1;paint-order:markers stroke fill;stop-color:#000000"
       d="m 47.613545,66.666929 c 0,0 3.478973,-2.538167 4.519626,-3.931708 0.454816,-0.609053 1.191413,-1.475965 0.938187,-2.192678 -0.219268,-0.620608 -1.878297,-1.032357 -1.878297,-1.032357 l 4.607853,-18.945698 -6.943252,18.163533 -1.694367,-0.06173 c -0.912057,-0.03335 -0.810226,3.060904 -0.488884,4.320333 z" />
    <path
       style="opacity:1;fill:#00ffff;stroke:#000000;stroke-width:0.529167;stroke-linejoin:round;stroke-dasharray:none;stroke-opacity:1;paint-order:markers stroke fill;stop-color:#000000"
       d="m 46.763334,62.71331 c -0.205678,-1.689991 0.02016,-3.151912 0.02016,-3.151912 l 1.711394,2.342277 1.266434,-1.240193 0.284241,1.787492 2.161131,-0.275942 c 0,0 -0.40684,0.431843 -0.770083,0.994268 -0.773124,1.197064 -3.785277,3.376286 -3.785277,3.376286 0,0 -0.673891,-2.072978 -0.888003,-3.832276 z"
       id="path2069"
       sodipodi:nodetypes="scccccscs" />
    <path
       style="opacity:1;fill:#ff00ff;stroke:none;stroke-width:1.32292;stroke-linejoin:round;stroke-dasharray:none;stroke-opacity:1;paint-order:markers stroke fill;stop-color:#000000"
       d="m 47.604592,66.615823 c -0.693989,-1.777975 -0.831174,-3.814028 -0.831174,-3.814028 l 0.863424,1.572668 0.644996,-0.435374 0.290248,0.741746 0.548245,-0.403122 0.03225,0.66112 1.261656,-0.641418 -1.51493,1.462643 c 0,0 -0.804792,0.622673 -1.294715,0.855765 z"
       id="path2125"
       sodipodi:nodetypes="cccccccccc" />
  </g>
</svg>
